<svg xmlns="http://www.w3.org/2000/svg" xmlns:svg="http://www.w3.org/2000/svg" id="svg14" width="472" height="222.982" fill="none" version="1.1" viewBox="0 0 472 222.982"><path id="path2" fill="#34495e" d="m 67.4334,111.491 48.4216,48.01 v 16 16 L 96.206,210.982 12,127.491 v -16 -16 L 96.206,12 115.855,31.481 v 16 16 z"/><path id="path4" fill="#34495e" d="m 405.11,111.491 -47.946,48.01 v 16 16 L 376.619,210.982 460,127.491 v -16 -16 L 376.619,12 357.164,31.481 v 16 16 z"/><path id="path6" fill="#34495e" d="M 254.706,36 236,63.251 217.294,36 H 155 V 53.5 68 L 236,186 317,68 V 53.5 36 Z"/><path id="path8" fill="#41b883" d="M 51.2963,95.491 115.855,159.501 96.206,178.982 12,95.491 96.206,12 115.855,31.481 Z"/><path id="path10" fill="#41b883" d="m 421.089,95.491 -63.925,64.01 19.455,19.481 L 460,95.491 376.619,12 357.164,31.481 Z"/><path id="path12" fill="#41b883" d="M 254.706,36 236,63.251 217.294,36 H 155 l 81,118 81,-118 z"/></svg>